<svg width="449" height="523" viewBox="0 0 449 523" fill="none" xmlns="http://www.w3.org/2000/svg">
<g clip-path="url(#clip0_7_2)">
<path d="M0.839084 83.942C9.03608 76.2485 27.4081 63.1405 36.9786 56.9605C95.4751 19.188 154.649 1.7785 223.873 0C306.733 1.82 384.973 28.8 447.638 84.0275C448.178 121.109 449.218 156.029 446.423 193.014C439.308 287.322 408.133 377.223 341.048 445.733C305.693 481.838 270.623 503.608 224.048 522.103C84.7186 466.953 13.1746 342.373 2.03806 196.692C-0.836941 159.085 -0.107416 121.611 0.839084 83.942Z" fill="#1D2334"/>
<path d="M36.9786 56.9605C27.4081 63.1405 9.03608 76.2485 0.839084 83.942C-0.107416 121.611 -0.836941 159.085 2.03806 196.692C13.1746 342.373 224.048 522.103 224.048 522.103V505.036L223.973 487.968V480.468V473.468V461.968V444.968V433.468V409.968V382.968V357.968V319.968V280.468V277.968V274.468V269.468V264.968V259.468V255.968V252.004V248.968V246.468V243.468V240.468V236.968V233.968V230.968V227.968V224.968V222.468V219.968V211.968V202.968L224.028 194.968L223.973 185.468V127.968V69.468V56.968C223.973 56.968 224.013 40.1885 223.958 31.936C223.838 21.291 223.813 10.6455 223.873 0C154.649 1.7785 95.4751 19.188 36.9786 56.9605Z" fill="#2A929E"/>
<path d="M0.839084 83.942C9.03608 76.2485 27.4081 63.1405 36.9786 56.9605C95.4751 19.188 154.649 1.7785 223.873 0C223.813 10.6455 223.838 21.291 223.958 31.936C160.641 31.775 94.3461 54.42 43.2591 91.556C39.6521 94.178 35.9781 97.163 32.3081 99.6305C32.0836 130.068 31.1841 159.222 33.5156 189.66C40.3421 278.772 68.4146 361.268 132.063 425.753C153.677 447.648 178.778 465.798 206.342 479.463C211.138 481.848 219.258 485.798 224.203 487.488C224.038 499.023 223.988 510.563 224.048 522.103C84.7186 466.953 13.1746 342.373 2.03806 196.692C-0.836941 159.085 -0.107416 121.611 0.839084 83.942Z" fill="#F7CA98"/>
<path d="M223.873 0C306.733 1.82 384.973 28.8 447.638 84.0275C448.178 121.109 449.218 156.029 446.423 193.014C439.308 287.322 408.133 377.223 341.048 445.733C305.693 481.838 270.623 503.608 224.048 522.103C223.988 510.563 224.038 499.023 224.203 487.488C259.563 472.588 291.603 450.803 318.468 423.403C381.228 360.163 409.543 272.082 415.248 184.835C417.063 157.042 416.333 127.702 416.213 99.6985C362.768 55.992 292.718 32.652 223.958 31.936C223.838 21.291 223.813 10.6455 223.873 0Z" fill="#AA6637"/>
<path d="M229.427 58C227.497 57.482 229.28 57.0001 222.28 57.0001C197.28 60.0001 185.28 74.5001 183.28 100.5C170.78 101 161.28 103.5 151.78 112C121.78 141 139.28 191.5 180.78 193C183.585 193.157 184.975 193.08 187.78 193C186.28 206.5 194.28 211.739 200.28 213.5C200.555 213.675 199.28 213.5 200.473 218C201.78 219 201.28 218.535 202.328 219.5C203.78 222 194.78 227.5 199.28 232.5L200.78 233.5L201.78 234C203.28 233 222.768 233.403 226.363 233.462L226.648 233.382L226.633 230.274L226.348 227.862C226.393 226.569 226.443 225.277 226.503 223.986L226.168 223.886C226.223 222.162 226.098 220.272 226.033 218.535C225.988 217.22 226.048 216.815 225.683 215.569L224.343 215.255C222.343 215.055 221.983 215.349 220.578 214.361C222.358 212.516 224.673 214.743 226.743 211.739C226.288 208.575 225.793 207.083 225.928 204C212.943 204.187 207.293 202.754 200.473 190.883C202.058 188.617 203.033 183.618 203.648 181.42C201.458 178.753 192.595 182.515 188.28 182.42C185.325 182.325 183.165 183.079 180.28 182.42C176.815 181.606 172.428 180.647 169.403 178.89C140.943 162.342 146.555 117.435 180.28 111.905C187.16 110.776 192.015 112.162 198.78 113.92C195.065 97.5832 195.978 80.2372 214.483 71.3952C218.503 69.4742 227.858 69.3423 232.298 69.3093C232.378 65.2828 227.972 61.2585 229.427 58C230.925 57.4998 226.707 58.0585 229.427 58Z" fill="#F7CA98"/>
<path d="M264.225 101.489C264.98 74.952 251.21 60.6445 230.427 57.6445L224.28 56.9999C224.28 56.9999 225.427 61.1445 225.427 63.1445C225.427 66.6445 224.927 66.6445 223.927 70.1445C228.367 70.1775 232.485 69.6515 236.505 71.5725C255.01 80.4145 254.925 96.6775 251.21 113.014C257.975 111.256 263.8 110.191 270.68 111.319C304.405 116.849 310.045 162.519 281.585 179.067C278.56 180.824 276.95 181.719 273.485 182.532C270.6 183.192 267.66 183.572 264.705 183.666C260.39 183.762 247.755 181.826 245.565 184.493C246.18 186.692 248.93 188.795 250.515 191.061C243.695 202.932 237.505 204.824 224.52 204.637C224.655 207.72 224.7 208.752 224.245 211.916C226.315 214.92 228.63 212.693 230.41 214.538C229.005 215.526 228.645 215.232 226.645 215.432L225.305 215.746C224.94 216.992 225 217.398 224.955 218.712C224.89 220.449 224.765 222.34 224.82 224.064L224.485 224.163C224.545 225.455 224.595 226.747 224.64 228.039L224.355 230.452L224.34 233.559L224.625 233.64C228.22 233.581 242.55 233.142 245.555 233.631L248.66 232.795C253.655 228.958 248.32 225.468 246.255 221.58C246.375 219.524 246.105 220.501 247.34 218.621C247.635 217.707 247.88 214.046 248.155 213.871C257.8 207.835 261.675 207.103 260.175 193.191C262.98 193.27 265.925 193.373 268.73 193.216C309.635 190.931 326.245 139.33 296.735 112.082C287.575 103.626 276.38 100.896 264.225 101.489Z" fill="#B2AEAD"/>
<path d="M210.307 111.866C226.17 120.393 226.71 144.252 207.66 148.942C204.328 149.762 200.845 150.07 198.931 146.715L198.827 145.478C201.753 142.388 206.576 139.999 206.542 135.214C206.499 129.402 203.161 125.356 198.877 121.847C200.409 120.352 201.154 118.764 202.223 116.903C205.13 113.669 206.321 113.261 210.307 111.866Z" fill="#AA6637"/>
<path d="M197.983 113.744C197.47 110.044 195.263 105.777 195.081 101.842C194.261 84.1845 205.373 71.0925 222.905 69.483C223.04 71.8665 223.09 73.188 222.92 75.56C204.016 77.902 195.745 98.487 210.307 111.866C206.321 113.261 205.13 113.669 202.223 116.903C201.154 118.764 200.409 120.352 198.877 121.847C191.9 118.924 184.723 116.546 177.38 119.753C153.959 129.985 154.921 165.249 178.789 174.041C184.836 176.256 191.518 175.955 197.342 173.208C201.193 171.432 209.419 162.827 211.762 163.693C213.215 164.231 214.29 165.547 214.785 166.981C217.11 173.693 211.772 179.926 220.85 184.706C221.715 185.164 222.585 185.456 223.52 185.747C224.715 188.368 224.472 201.025 224.427 204.645C216.857 204.548 208.389 204.539 202.847 198.001C198.079 192.377 202.095 187.749 202.62 182.029C200.161 180.474 190.887 183.028 186.502 183.16C182.969 183.27 179.439 182.859 176.026 181.938C156.588 176.617 146.891 154.605 152.482 135.84C155.112 127.025 161.16 119.627 169.277 115.297C178.085 110.705 188.674 110.772 197.983 113.744Z" fill="#AA6637"/>
<path d="M202.27 219.414C205.301 218.84 220.575 218.882 224.955 218.712C224.89 220.449 224.765 222.34 224.82 224.064L224.485 224.163L204.742 224.353L200.5 224.014C202.141 221.777 202.499 221.74 202.27 219.414Z" fill="#AA6637"/>
<path d="M226.645 215.432C221.725 214.953 207.004 217.002 204.128 214.586L204.189 213.449C206.433 210.632 221.01 211.02 224.245 211.916C226.315 214.92 228.63 212.693 230.41 214.538C229.005 215.526 228.645 215.232 226.645 215.432Z" fill="white"/>
<path d="M168.758 107.257L169.129 107.51C168.337 109.107 162.433 113.778 160.68 115.347C145.85 128.624 143.049 152.535 152.452 169.688C155.267 174.824 158.949 178.766 162.865 183.049C161.235 182.274 159.319 181.097 157.729 180.18C148.701 174.195 142.43 164.86 140.303 154.239C136.518 135.181 149.099 110.899 168.758 107.257Z" fill="white"/>
<path d="M216.75 61.8196C220.07 62.4766 221.27 62.0436 225.3 63.1746C203.371 66.2346 195.882 79.3071 190.913 99.0716C190.716 100.811 191 100.233 190.095 101.573L189.167 101.119C188.631 99.9741 188.39 99.4166 188.179 98.1496C185.223 80.3741 199.847 64.7536 216.75 61.8196Z" fill="white"/>
<path d="M207.456 248.573C212.143 248.528 218.075 248.31 222.665 248.575C223.795 250.921 224.17 253.034 224.125 255.661L223.83 255.689L223.79 459.648C216.965 459.353 212.36 453.153 207.668 448.288L207.468 255.582C207.353 253.572 207.452 250.656 207.456 248.573Z" fill="#F7CA98"/>
<path d="M207.456 248.573C212.143 248.528 218.075 248.31 222.665 248.575C223.795 250.921 224.17 253.034 224.125 255.661L223.83 255.689C218.88 255.464 212.515 255.603 207.468 255.582C207.353 253.572 207.452 250.656 207.456 248.573Z" fill="#AA6637"/>
<path d="M213.725 270.563C215.835 270.558 216.985 270.204 218.6 271.16C219.785 273.796 219.18 370.513 219.17 380.918L219.105 419.248C219.09 425.818 219.385 435.048 218.745 441.308C217.065 441.598 215.865 442.023 214.31 441.418C213.075 439.813 213.675 418.688 213.68 414.863L213.755 358.828C213.765 330.153 212.95 298.923 213.725 270.563Z" fill="white"/>
<path d="M204.742 224.353L224.485 224.163C224.545 225.455 224.595 226.747 224.64 228.039L224.355 230.452L224.34 233.559L224.625 233.64L224.205 238.756L224.235 238.978L224.215 241.661L224.07 244.492C223.91 246.056 223.97 247.048 223.385 248.464L222.665 248.575C218.075 248.31 212.143 248.528 207.456 248.573C200.442 248.571 193.085 244.215 201.315 238.511C202.229 236.157 202.286 236.07 201.725 233.888L202.45 233.531L202.431 232.698C201.242 232.293 201.367 232.507 200.502 231.754L201.595 230.913C201.097 229.836 201.285 230.181 201.38 228.811C202.532 227.04 201.785 227.645 203.598 226.813L203.002 226.246L203.183 225.362L204.742 224.353Z" fill="#EECFA9"/>
<path d="M204.742 224.353L224.485 224.163C224.545 225.455 224.595 226.747 224.64 228.039L224.355 230.452L224.34 233.559C217.045 233.491 209.747 233.482 202.45 233.531L202.431 232.698C201.242 232.293 201.367 232.507 200.502 231.754L201.595 230.913C201.097 229.836 201.285 230.181 201.38 228.811C202.532 227.04 201.785 227.645 203.598 226.813L203.002 226.246L203.183 225.362L204.742 224.353Z" fill="white"/>
<path d="M201.595 230.913C208.383 230.315 217.4 230.451 224.355 230.452L224.34 233.559C217.045 233.491 209.747 233.482 202.45 233.531L202.431 232.698C201.242 232.293 201.367 232.507 200.502 231.754L201.595 230.913Z" fill="#F7CA98"/>
<path d="M204.742 224.353L224.485 224.163C224.545 225.455 224.595 226.747 224.64 228.039L224.035 227.269C221.45 226.664 208.443 227.279 203.598 226.813L203.002 226.246L203.183 225.362L204.742 224.353Z" fill="#F7CA98"/>
<path d="M202.45 233.531C209.747 233.482 217.045 233.491 224.34 233.559L224.625 233.64L224.205 238.756C216.575 238.819 208.942 238.738 201.315 238.511C202.229 236.157 202.286 236.07 201.725 233.888L202.45 233.531Z" fill="#AA6637"/>
<path d="M224.07 244.492C220.28 244.782 205.587 245.686 203.062 243.197L203.704 242.445C208.656 240.677 218.645 241.507 224.215 241.661L224.07 244.492Z" fill="white"/>
<path d="M200.5 224.014L204.742 224.353L203.183 225.362L203.002 226.246L203.599 226.813C201.786 227.645 202.532 227.04 201.38 228.811C201.285 230.181 201.097 229.836 201.595 230.913L200.502 231.754C201.368 232.507 201.242 232.293 202.432 232.698L202.45 233.531L201.726 233.888C196.587 231.855 197.215 227.561 200.5 224.014Z" fill="#EECFA9"/>
<path d="M223.69 69.196C228.13 69.229 232.485 69.6516 236.505 71.5726C255.01 80.4146 254.925 96.6775 251.21 113.014C257.975 111.256 263.8 110.191 270.68 111.319C304.405 116.849 310.045 162.519 281.585 179.067C278.56 180.825 276.95 181.719 273.485 182.532C270.6 183.192 267.66 183.572 264.705 183.666C260.39 183.762 247.755 181.826 245.565 184.493C246.18 186.692 248.93 188.795 250.515 191.061C243.695 202.932 237.412 204.832 224.427 204.645L224.295 204.353C224.34 200.733 224.715 188.368 223.52 185.747L224.335 185.556C234.09 184.065 233.735 177.933 233.485 169.925C233.38 166.705 235.42 162.988 238.97 163.339C240.445 163.485 244.335 168.144 245.75 169.275C255.125 178.379 269.21 176.787 278.575 168.133C295.67 152.338 287.51 119.142 262.42 118.13C254.36 117.805 241.17 125.629 241.84 134.875C242.22 140.101 246.11 142.885 249.85 145.998C249.705 147.49 249.63 147.401 248.72 148.63C243.52 151.796 232.65 146.573 229.52 142.203C223.645 134.001 225.85 122.914 232.745 116.093C237.91 110.978 244.175 107.66 244.72 99.419C245.78 85.734 236.955 76.346 223.66 75.561L222.92 75.5601C223.09 73.1881 223.04 71.8665 222.905 69.483L223.69 69.196Z" fill="#975834"/>
<path d="M223.385 248.464C229.255 248.718 235.02 248.686 240.89 248.686C241.21 277.115 241.31 305.545 241.18 333.973L241.16 360.273C241.15 365.313 240.945 371.863 241.425 376.688C242.925 377.493 245.135 377.433 246.915 377.538C244.96 377.643 243 377.733 241.045 377.808C241.335 400.078 241.065 421.478 240.82 443.658C240.895 445.278 241.01 446.188 240.725 447.813C238.055 450.538 236.655 451.928 233.67 454.253C230.405 457.308 228.77 459.263 224.115 459.753L223.79 459.648L223.83 255.689L224.125 255.661C224.17 253.034 223.795 250.921 222.665 248.575L223.385 248.464Z" fill="#B2AEAD"/>
<path d="M223.385 248.464C229.255 248.718 235.02 248.686 240.89 248.686C241.21 277.115 241.31 305.545 241.18 333.973L241.16 360.273C241.15 365.313 240.945 371.863 241.425 376.688C242.925 377.493 245.135 377.433 246.915 377.538C244.96 377.643 243 377.733 241.045 377.808C241.335 400.078 241.065 421.478 240.82 443.658C240.895 445.278 241.01 446.188 240.725 447.813C238.055 450.538 236.655 451.928 233.67 454.253C232.915 447.788 233.19 437.203 233.205 430.418L233.22 392.458L233.165 259.201C230.25 257.849 227.145 256.775 224.125 255.661C224.17 253.034 223.795 250.921 222.665 248.575L223.385 248.464Z" fill="#975834"/>
<path d="M224.955 218.712C232.09 218.735 240.3 218.944 247.34 218.621C246.105 220.501 246.375 219.524 246.255 221.58C248.32 225.468 253.655 228.958 248.66 232.795L245.555 233.631C242.55 233.142 228.22 233.581 224.625 233.64L224.34 233.559L224.355 230.452L224.64 228.039C224.595 226.747 224.545 225.455 224.485 224.163L224.82 224.064C224.765 222.34 224.89 220.449 224.955 218.712Z" fill="#B2AEAD"/>
<path d="M224.955 218.712C232.09 218.735 240.3 218.944 247.34 218.621C246.105 220.501 246.375 219.524 246.255 221.58C248.32 225.468 253.655 228.958 248.66 232.795C244.86 230.496 240.79 225.404 236.195 224.483C232.885 223.821 228.285 224.044 224.82 224.064C224.765 222.34 224.89 220.449 224.955 218.712Z" fill="#975834"/>
<path d="M246.915 377.538C259.195 377.408 276.705 376.843 288.625 377.428L288.695 396.283L279.695 396.323L269.715 396.207L269.77 405.712L258.655 405.628L258.67 415.168L269.78 415.123L269.715 424.207L279.63 424.133L288.71 424.143C288.72 430.598 288.665 437.158 288.75 443.603C272.775 443.763 256.795 443.778 240.82 443.658C241.065 421.478 241.335 400.078 241.045 377.808C243 377.733 244.96 377.643 246.915 377.538Z" fill="#AA6637"/>
<path d="M249.665 386.128L279.67 386.088L279.695 396.323L269.715 396.208L269.77 405.713L258.655 405.628L258.67 415.168L269.78 415.123L269.715 424.208L279.63 424.133L279.68 435.068C270.08 434.653 259.225 434.658 249.66 434.803L249.665 386.128Z" fill="#B2AEAD"/>
<path d="M224.625 233.64C228.22 233.581 242.55 233.142 245.555 233.631C247.84 238.562 251.315 238.267 250.67 244.223C247.355 248.597 246.3 248.768 240.89 248.686C235.02 248.686 229.255 248.718 223.385 248.464C223.97 247.048 223.91 246.056 224.07 244.492L224.215 241.661L224.235 238.978L224.205 238.756L224.625 233.64Z" fill="#B2AEAD"/>
<path d="M224.625 233.64C228.22 233.581 242.55 233.142 245.555 233.631C247.84 238.562 251.315 238.267 250.67 244.223C241.94 237.513 235.145 238.957 224.235 238.978L224.205 238.756L224.625 233.64Z" fill="#975834"/>
</g>
<defs>
<clipPath id="clip0_7_2">
<rect width="449" height="523" fill="white"/>
</clipPath>
</defs>
</svg>