<svg width="438" height="111" viewBox="0 0 438 111" fill="none" xmlns="http://www.w3.org/2000/svg">
<g clip-path="url(#clip0_1_2)">
<path d="M191.052 0.0999756C195.616 0.129976 200.181 0.129976 204.745 0.0999756L204.724 31.165C213.286 20.89 223.736 10.48 231.911 0.274963L248.786 0.224976C240.051 9.98998 230.066 22.095 221.161 31.27C227.171 39.155 233.241 47.955 239.051 56.055C242.971 61.51 246.931 66.93 250.931 72.325L234.261 72.29C229.376 64.26 218.246 50.02 212.336 42.31C209.776 45.595 207.571 48.365 204.801 51.465L204.695 72.34L191.197 72.325L191.052 0.0999756Z" fill="currentColor"/>
<path d="M0 0.0199585C4.6315 0.199959 9.03 0.100015 13.655 0.0150146C13.698 10.3 13.668 20.59 13.5655 30.875C22.426 20.55 31.6795 10.565 40.5465 0.174988C46.2265 0.194988 51.906 0.14 57.5845 0C48.814 9.92 39.056 21.88 29.9685 31.26C35.91 38.84 42.202 48.305 47.79 56.295L59.2205 72.39L42.487 72.325C36.588 62.945 27.606 51.165 20.968 42.085C18.517 45.085 16.036 48.06 13.524 51.01C13.3425 58.095 13.2855 65.185 13.3525 72.275L0.0750122 72.3L0 0.0199585Z" fill="currentColor"/>
<path d="M86.9023 18.885C108.836 16.9102 117.175 31.0149 116.561 50.8098C103.324 50.7298 90.0865 50.7402 76.8496 50.8352C77.4041 52.3051 78.1447 54.2603 78.9932 55.5402C81.2117 58.9 84.6859 61.2252 88.6357 62.0002C95.436 63.355 101.24 61.1294 106.809 57.5295C109.169 60.7495 110.747 62.4797 113.506 65.3996C88.7593 87.9096 49.657 61.3194 68.3525 30.1994C72.4841 23.3197 79.486 20.4449 86.9023 18.885ZM104.024 41.9699C101.924 31.9101 96.5285 29.4602 86.7978 30.3801C80.9328 32.9651 79.3924 34.4501 76.9394 40.7551C76.797 41.1199 76.6574 41.4897 76.5215 41.8645L95.2783 41.965L104.024 41.9699Z" fill="currentColor"/>
<path d="M340.461 18.8796C362.686 17.0549 371.261 30.69 370.656 50.9197C357.486 51.0997 343.591 50.3552 330.516 51.0652C336.466 64.78 348.851 64.925 360.461 57.655C362.706 60.2949 364.931 62.9547 367.131 65.6296C356.916 74.1646 342.066 76.4598 330.356 69.5798C324.311 66.0499 319.996 60.1751 318.446 53.3552C314.511 36.7802 323.541 22.3796 340.461 18.8796ZM342.536 29.8953C335.081 31.8653 332.741 34.3504 330.501 41.8552L346.951 41.9246L358.29 41.9197C356.22 32.99 351.825 29.5703 342.536 29.8953Z" fill="currentColor"/>
<path d="M277.771 18.8905C279.806 18.6705 281.851 18.5902 283.891 18.6502C302.751 19.2002 309.336 34.3854 308.431 50.8954C295.251 51.1454 281.546 50.5045 268.521 51.0545C268.961 52.0745 269.601 53.6048 270.146 54.5848C272.236 58.2548 275.761 60.8854 279.876 61.8504C286.326 63.4103 292.461 61.4747 297.956 58.1698L298.266 58.0653C299.586 58.4804 304.036 64.0401 305.331 65.5301C289.551 79.0001 262.461 75.3501 256.701 54.0702C252.176 37.3603 261.141 23.0906 277.771 18.8905ZM281.076 29.9452C273.526 31.3402 270.711 34.5004 268.516 41.8104L283.931 41.8446H296.211C293.541 33.7049 290.581 29.6353 281.076 29.9452Z" fill="currentColor"/>
<path d="M165.227 19.395C169.541 19.785 174.782 19.655 179.181 19.66C172.361 35.81 165.562 53.765 159.405 70.175C152.539 87.41 145.85 98.105 125.239 88.38C126.874 84.885 128.228 81.34 129.64 77.755C137.259 81.365 140.994 82.07 144.953 73.93L123.028 19.56C127.579 19.645 132.131 19.64 136.682 19.555L137.028 19.67C139.03 22.25 149.261 51.65 151.247 57.085C152.534 54.3 154.476 48.265 155.643 45.145C158.894 36.585 162.089 28 165.227 19.395Z" fill="currentColor"/>
<path d="M408.025 18.8897C424.15 17.2347 435.556 26.7453 437.301 42.625C439.895 66.2696 416.176 83.7892 396.071 66.46L396.056 72.6748C396.008 75.036 395.996 80.6091 396.001 86.8174L411.668 86.7998L411.681 91.6065L406.364 91.5518L406.393 96.0156L400.471 95.9756L400.479 100.455L406.398 100.434L406.364 104.7L411.646 104.665L411.668 110.3H396.071C391.681 110.3 387.02 110.315 382.735 110.3V19.7998L395.641 19.7842L395.681 26.625C399.93 21.7303 401.896 20.7695 408.025 18.8897ZM408.591 30.4346C389.106 34.6996 393.291 62.2294 410.806 61.6748C430.031 58.6248 427.726 30.6546 408.591 30.4346Z" fill="currentColor"/>
</g>
<defs>
<clipPath id="clip0_1_2">
<rect width="438" height="111" fill="white"/>
</clipPath>
</defs>
</svg>